<?xml version="1.0"?>
<!DOCTYPE svg PUBLIC "-//W3C//DTD SVG 1.1//EN" "http://www.w3.org/Graphics/SVG/1.1/DTD/svg11.dtd">
<svg xmlns="http://www.w3.org/2000/svg" xmlns:xl="http://www.w3.org/1999/xlink" version="1.1" viewBox="0 0 512 512" width="512pt" height="512pt">
  <metadata xmlns:dc="http://purl.org/dc/elements/1.1/">
    <dc:date>2013-04-04 05:58Z</dc:date>
  </metadata>
  <g stroke="none" stroke-opacity="1" stroke-dasharray="none" fill="none" fill-opacity="1">
    <title>Snakevil Zen's Logo</title>
    <path d="M 435.68374 312.43911 C 496.9135 305.34996 508.6208 260.74039 508.6208 260.74039 C 533.691 165.20892 408.3353 143.85773 489.24387 0 C 432.8772 71.473 432.0659 121.35757 444.16468 159.77111 C 331.24266 57.248175 144.227935 134.633455 28.140886 14.7318575 C 161.06718 158.78961 263.10266 149.10482 351.5724 165.43685 C 229.06568 167.29752 189.02883 268.40635 -5684342e-20 209.59986 C 160.64738 284.25461 261.28194 236.41677 327.44557 221.08485 C 289.90867 250.67881 260.06499 289.04583 154.34092 277.1422 C 268.57895 306.08492 317.75239 267.79233 354.4261 238.92868 C 335.71426 268.80174 336.72367 310.61566 368.44466 345.0334 C 395.7601 374.65993 429.0188 394.50863 457.33892 423.70255 C 482.40912 449.5519 483.54588 473.1545 469.87166 484.39296 C 422.82082 523.0577 362.74668 456.29684 362.74668 456.29684 C 423.14628 554.0704 492.66832 493.38465 492.66832 493.38465 C 499.01252 487.8445 510.69623 463.72092 499.50308 439.43917 C 482.40912 402.35136 452.75883 381.70257 434.54225 367.5103 C 363.88816 312.43911 366.16641 247.25518 427.7075 247.25518 C 456.93798 247.25518 470.20184 258.41455 472.68292 271.4532 C 461.79165 298.31197 435.68374 312.43911 435.68374 312.43911 Z" fill="black"/>
    <path d="M 489.39623 269.03153 L 485.82083 258.16987 L 474.23619 258.16987 L 483.6039 251.80173 L 480.0285 241.11683 L 489.39623 247.91293 L 498.76394 241.24707 L 495.18855 251.78312 L 504.55627 258.16987 L 492.97634 258.16987 Z" fill="white"/>
    <path d="M 362.4659 470.7638 L 358.8905 459.90213 L 347.30585 459.90213 L 356.67357 453.53399 L 353.09817 442.84909 L 362.4659 449.64518 L 371.8336 442.97933 L 368.25822 453.51538 L 377.62593 459.90213 L 366.046 459.90213 Z" fill="black"/>
  </g>
</svg>
